<svg width="500" height="500" viewBox="0 0 500 500" fill="none" xmlns="http://www.w3.org/2000/svg">
<path d="M401.487 84.7773C394.326 77.7481 382.8 77.9314 375.866 85.1846L349.883 112.365L206.921 255.684C199.981 262.641 188.745 262.747 181.675 255.922L149.117 224.491L121.596 196.902C114.563 189.851 103.142 189.851 96.1085 196.902L42.6804 250.463C35.6721 257.489 35.6721 268.861 42.6805 275.887L70.265 303.54L154.15 387.635L180 414.676C186.985 421.983 198.616 422.107 205.755 414.95L233.003 387.635L428.735 191.414L456.185 163.895C463.246 156.817 463.186 145.341 456.051 138.338L401.487 84.7773Z" fill="black"/>
</svg>
